# xmcd
# 
# Track frame offsets:
#     187
#     29587
#     64775
#     92237
#     130750
# 
# Disc length: 2342
# 
# Revision: 2
# Processed by: cddbd v1.5.2PL0 Copyright (c) Steve Scherf et al.
# Submitted via: BonkEnc v1.0.8
# 
DISCID=40092405
DTITLE=Jean-Luc Ponty - [with Wolfgang Dauner/NHOP/Daniel Humair] Sunday Walk
DYEAR=1967
DGENRE=Jazz Rock
TTITLE0=Sunday Walk
TTITLE1=Carole's Garden 
TTITLE2=Cat Coach
TTITLE3=You've Changed
TTITLE4=Suite for Claudia
EXTD=YEAR: 1967
EXTT0=
EXTT1=
EXTT2=
EXTT3=
EXTT4=
PLAYORDER=
